<mxfile host="app.diagrams.net" modified="2022-10-18T08:23:09.920Z" agent="5.0 (Windows NT 10.0; Win64; x64) AppleWebKit/537.36 (KHTML, like Gecko) Chrome/106.0.0.0 Safari/537.36 Edg/106.0.1370.47" etag="ONWxxS1woZvvSnjvKMZ3" version="20.4.0" type="github">
  <diagram id="kgpKYQtTHZ0yAKxKKP6v" name="Page-1">
    <mxGraphModel dx="1182" dy="732" grid="1" gridSize="10" guides="1" tooltips="1" connect="1" arrows="1" fold="1" page="1" pageScale="1" pageWidth="850" pageHeight="1100" math="0" shadow="0">
      <root>
        <mxCell id="0" />
        <mxCell id="1" parent="0" />
        <mxCell id="90_S6tlgAkutLuugzkXG-9" value=":UI" style="shape=umlLifeline;perimeter=lifelinePerimeter;container=1;collapsible=0;recursiveResize=0;rounded=0;shadow=0;strokeWidth=1;fontStyle=4" vertex="1" parent="1">
          <mxGeometry x="185" y="90" width="100" height="300" as="geometry" />
        </mxCell>
        <mxCell id="90_S6tlgAkutLuugzkXG-10" value="tulosta(saatiedot)" style="verticalAlign=bottom;endArrow=block;entryX=1;entryY=0;shadow=0;strokeWidth=1;" edge="1" parent="90_S6tlgAkutLuugzkXG-9">
          <mxGeometry relative="1" as="geometry">
            <mxPoint x="45" y="180" as="sourcePoint" />
            <mxPoint x="-85" y="180" as="targetPoint" />
          </mxGeometry>
        </mxCell>
        <mxCell id="90_S6tlgAkutLuugzkXG-11" value=":Sää palvelu, avoin data" style="shape=umlLifeline;perimeter=lifelinePerimeter;container=1;collapsible=0;recursiveResize=0;rounded=0;shadow=0;strokeWidth=1;fontStyle=4" vertex="1" parent="1">
          <mxGeometry x="365" y="90" width="175" height="300" as="geometry" />
        </mxCell>
        <mxCell id="90_S6tlgAkutLuugzkXG-12" value="tiedot(saatiedot)" style="verticalAlign=bottom;endArrow=block;shadow=0;strokeWidth=1;exitX=0.486;exitY=0.465;exitDx=0;exitDy=0;exitPerimeter=0;entryX=0.528;entryY=0.465;entryDx=0;entryDy=0;entryPerimeter=0;" edge="1" parent="1" source="90_S6tlgAkutLuugzkXG-11" target="90_S6tlgAkutLuugzkXG-9">
          <mxGeometry relative="1" as="geometry">
            <mxPoint x="410" y="210" as="sourcePoint" />
            <mxPoint x="245" y="210" as="targetPoint" />
          </mxGeometry>
        </mxCell>
        <mxCell id="90_S6tlgAkutLuugzkXG-13" value="" style="endArrow=none;dashed=1;html=1;rounded=0;" edge="1" parent="1">
          <mxGeometry width="50" height="50" relative="1" as="geometry">
            <mxPoint x="90" y="380" as="sourcePoint" />
            <mxPoint x="90" y="130" as="targetPoint" />
          </mxGeometry>
        </mxCell>
        <mxCell id="90_S6tlgAkutLuugzkXG-14" value="Käyttäjä" style="shape=umlActor;verticalLabelPosition=bottom;verticalAlign=top;html=1;outlineConnect=0;" vertex="1" parent="1">
          <mxGeometry x="80" y="40" width="30" height="60" as="geometry" />
        </mxCell>
        <mxCell id="90_S6tlgAkutLuugzkXG-15" value="haeSaatiedot(lokaatio, aika)" style="verticalAlign=bottom;endArrow=block;shadow=0;strokeWidth=1;entryX=0.514;entryY=0.343;entryDx=0;entryDy=0;entryPerimeter=0;" edge="1" parent="1" source="90_S6tlgAkutLuugzkXG-9" target="90_S6tlgAkutLuugzkXG-11">
          <mxGeometry relative="1" as="geometry">
            <mxPoint x="230" y="207" as="sourcePoint" />
            <mxPoint x="365" y="180" as="targetPoint" />
            <Array as="points">
              <mxPoint x="330" y="193" />
            </Array>
          </mxGeometry>
        </mxCell>
        <mxCell id="90_S6tlgAkutLuugzkXG-16" value="kysySaa(lokaatio, aika)" style="verticalAlign=bottom;endArrow=block;shadow=0;strokeWidth=1;" edge="1" parent="1">
          <mxGeometry relative="1" as="geometry">
            <mxPoint x="100" y="160" as="sourcePoint" />
            <mxPoint x="230" y="160" as="targetPoint" />
            <Array as="points">
              <mxPoint x="195" y="160" />
            </Array>
          </mxGeometry>
        </mxCell>
      </root>
    </mxGraphModel>
  </diagram>
</mxfile>
